<?xml version="1.0" encoding="UTF-8" standalone="no"?>
<!DOCTYPE svg PUBLIC "-//W3C//DTD SVG 1.1//EN"
 "http://www.w3.org/Graphics/SVG/1.1/DTD/svg11.dtd">
<!-- Generated by graphviz version 2.46.0 (20210119.1425)
 -->
<!-- Title: dependencies Pages: 1 -->
<svg width="836pt" height="287pt"
 viewBox="0.00 0.00 836.00 287.00" xmlns="http://www.w3.org/2000/svg" xmlns:xlink="http://www.w3.org/1999/xlink">
<g id="graph0" class="graph" transform="scale(1 1) rotate(0) translate(4 283)">
<title>dependencies</title>
<polygon fill="white" stroke="transparent" points="-4,4 -4,-283 832,-283 832,4 -4,4"/>
<text text-anchor="start" x="393.01" y="-42.4" font-family="sans-serif" font-weight="bold" font-size="14.00">Legend</text>
<polygon fill="#ffffb3" stroke="transparent" points="180,-10 180,-30 200,-30 200,-10 180,-10"/>
<text text-anchor="start" x="203.63" y="-15.4" font-family="sans-serif" font-size="14.00"> &#160;Declarations</text>
<polygon fill="#8dd3c7" stroke="transparent" points="293,-10 293,-30 313,-30 313,-10 293,-10"/>
<text text-anchor="start" x="316.73" y="-15.4" font-family="sans-serif" font-size="14.00"> &#160;Module</text>
<polygon fill="#80b1d3" stroke="transparent" points="379,-10 379,-30 399,-30 399,-10 379,-10"/>
<text text-anchor="start" x="402.78" y="-15.4" font-family="sans-serif" font-size="14.00"> &#160;Bootstrap</text>
<polygon fill="#fdb462" stroke="transparent" points="476,-10 476,-30 496,-30 496,-10 476,-10"/>
<text text-anchor="start" x="499.67" y="-15.4" font-family="sans-serif" font-size="14.00"> &#160;Providers</text>
<polygon fill="#fb8072" stroke="transparent" points="572,-10 572,-30 592,-30 592,-10 572,-10"/>
<text text-anchor="start" x="595.73" y="-15.4" font-family="sans-serif" font-size="14.00"> &#160;Exports</text>
<g id="clust1" class="cluster">
<title>cluster_AppModule</title>
<polygon fill="none" stroke="black" stroke-dasharray="1,5" points="8,-146 8,-271 552,-271 552,-146 8,-146"/>
</g>
<g id="clust3" class="cluster">
<title>cluster_AppModule_imports</title>
<polygon fill="none" stroke="black" points="333,-154 333,-206 544,-206 544,-154 333,-154"/>
</g>
<g id="clust6" class="cluster">
<title>cluster_AppModule_providers</title>
<polygon fill="none" stroke="black" points="16,-154 16,-206 325,-206 325,-154 16,-154"/>
</g>
<g id="clust7" class="cluster">
<title>cluster_AuthModule</title>
<polygon fill="none" stroke="black" stroke-dasharray="1,5" points="433,-70 433,-138 693,-138 693,-70 433,-70"/>
</g>
<g id="clust9" class="cluster">
<title>cluster_AuthModule_imports</title>
<polygon fill="none" stroke="black" points="583,-78 583,-130 685,-130 685,-78 583,-78"/>
</g>
<g id="clust12" class="cluster">
<title>cluster_AuthModule_providers</title>
<polygon fill="none" stroke="black" points="441,-78 441,-130 575,-130 575,-78 441,-78"/>
</g>
<g id="clust13" class="cluster">
<title>cluster_UserModule</title>
<polygon fill="none" stroke="black" stroke-dasharray="1,5" points="560,-146 560,-214 820,-214 820,-146 560,-146"/>
</g>
<g id="clust16" class="cluster">
<title>cluster_UserModule_exports</title>
<polygon fill="none" stroke="black" points="708,-154 708,-206 812,-206 812,-154 708,-154"/>
</g>
<g id="clust18" class="cluster">
<title>cluster_UserModule_providers</title>
<polygon fill="none" stroke="black" points="568,-154 568,-206 700,-206 700,-154 568,-154"/>
</g>
<g id="clust19" class="cluster">
<title>cluster_WishModule</title>
<polygon fill="none" stroke="black" stroke-dasharray="1,5" points="273,-70 273,-138 425,-138 425,-70 273,-70"/>
</g>
<g id="clust24" class="cluster">
<title>cluster_WishModule_providers</title>
<polygon fill="none" stroke="black" points="281,-78 281,-130 417,-130 417,-78 281,-78"/>
</g>
<!-- AuthModule -->
<g id="node1" class="node">
<title>AuthModule</title>
<polygon fill="#8dd3c7" stroke="black" points="535.55,-198 532.55,-202 511.55,-202 508.55,-198 448.45,-198 448.45,-162 535.55,-162 535.55,-198"/>
<text text-anchor="middle" x="492" y="-175.8" font-family="Times,serif" font-size="14.00">AuthModule</text>
</g>
<!-- AppModule -->
<g id="node3" class="node">
<title>AppModule</title>
<polygon fill="#8dd3c7" stroke="black" points="364.66,-263 361.66,-267 340.66,-267 337.66,-263 281.34,-263 281.34,-227 364.66,-227 364.66,-263"/>
<text text-anchor="middle" x="323" y="-240.8" font-family="Times,serif" font-size="14.00">AppModule</text>
</g>
<!-- AuthModule&#45;&gt;AppModule -->
<g id="edge1" class="edge">
<title>AuthModule&#45;&gt;AppModule</title>
<path fill="none" stroke="black" d="M492,-198.11C492,-217.34 492,-245 492,-245 492,-245 374.78,-245 374.78,-245"/>
<polygon fill="black" stroke="black" points="374.78,-241.5 364.78,-245 374.78,-248.5 374.78,-241.5"/>
</g>
<!-- WishModule -->
<g id="node2" class="node">
<title>WishModule</title>
<polygon fill="#8dd3c7" stroke="black" points="430.6,-198 427.6,-202 406.6,-202 403.6,-198 341.4,-198 341.4,-162 430.6,-162 430.6,-198"/>
<text text-anchor="middle" x="386" y="-175.8" font-family="Times,serif" font-size="14.00">WishModule</text>
</g>
<!-- WishModule&#45;&gt;AppModule -->
<g id="edge2" class="edge">
<title>WishModule&#45;&gt;AppModule</title>
<path fill="none" stroke="black" d="M353.14,-198.11C353.14,-198.11 353.14,-216.99 353.14,-216.99"/>
<polygon fill="black" stroke="black" points="349.64,-216.99 353.14,-226.99 356.64,-216.99 349.64,-216.99"/>
</g>
<!-- AppService -->
<g id="node4" class="node">
<title>AppService</title>
<ellipse fill="#fdb462" stroke="black" cx="260" cy="-180" rx="56.74" ry="18"/>
<text text-anchor="middle" x="260" y="-175.8" font-family="Times,serif" font-size="14.00">AppService</text>
</g>
<!-- AppService&#45;&gt;AppModule -->
<g id="edge3" class="edge">
<title>AppService&#45;&gt;AppModule</title>
<path fill="none" stroke="black" d="M298.9,-193.15C298.9,-193.15 298.9,-216.69 298.9,-216.69"/>
<polygon fill="black" stroke="black" points="295.4,-216.69 298.9,-226.69 302.4,-216.69 295.4,-216.69"/>
</g>
<!-- FacebookStrategy -->
<g id="node5" class="node">
<title>FacebookStrategy</title>
<ellipse fill="#fdb462" stroke="black" cx="105" cy="-180" rx="80.52" ry="18"/>
<text text-anchor="middle" x="105" y="-175.8" font-family="Times,serif" font-size="14.00">FacebookStrategy</text>
</g>
<!-- FacebookStrategy&#45;&gt;AppModule -->
<g id="edge4" class="edge">
<title>FacebookStrategy&#45;&gt;AppModule</title>
<path fill="none" stroke="black" d="M105,-198.11C105,-217.34 105,-245 105,-245 105,-245 271.23,-245 271.23,-245"/>
<polygon fill="black" stroke="black" points="271.23,-248.5 281.23,-245 271.23,-241.5 271.23,-248.5"/>
</g>
<!-- UserModule -->
<g id="node6" class="node">
<title>UserModule</title>
<polygon fill="#8dd3c7" stroke="black" points="676.98,-122 673.98,-126 652.98,-126 649.98,-122 591.02,-122 591.02,-86 676.98,-86 676.98,-122"/>
<text text-anchor="middle" x="634" y="-99.8" font-family="Times,serif" font-size="14.00">UserModule</text>
</g>
<!-- UserModule&#45;&gt;AuthModule -->
<g id="edge5" class="edge">
<title>UserModule&#45;&gt;AuthModule</title>
<path fill="none" stroke="black" d="M590.96,-104C580.14,-104 571.54,-104 571.54,-104 571.54,-104 571.54,-180 571.54,-180 571.54,-180 545.96,-180 545.96,-180"/>
<polygon fill="black" stroke="black" points="545.96,-176.5 535.96,-180 545.96,-183.5 545.96,-176.5"/>
</g>
<!-- UserService  -->
<g id="node8" class="node">
<title>UserService </title>
<polygon fill="#fb8072" stroke="black" points="803.9,-198 716.1,-198 716.1,-162 803.9,-162 803.9,-198"/>
<text text-anchor="middle" x="760" y="-175.8" font-family="Times,serif" font-size="14.00">UserService </text>
</g>
<!-- UserModule&#45;&gt;UserService  -->
<g id="edge7" class="edge">
<title>UserModule&#45;&gt;UserService </title>
<path fill="none" stroke="black" stroke-dasharray="5,2" d="M677.01,-104C713.51,-104 760,-104 760,-104 760,-104 760,-151.99 760,-151.99"/>
<polygon fill="black" stroke="black" points="756.5,-151.99 760,-161.99 763.5,-151.99 756.5,-151.99"/>
</g>
<!-- AuthService -->
<g id="node7" class="node">
<title>AuthService</title>
<ellipse fill="#fdb462" stroke="black" cx="508" cy="-104" rx="59.11" ry="18"/>
<text text-anchor="middle" x="508" y="-99.8" font-family="Times,serif" font-size="14.00">AuthService</text>
</g>
<!-- AuthService&#45;&gt;AuthModule -->
<g id="edge6" class="edge">
<title>AuthService&#45;&gt;AuthModule</title>
<path fill="none" stroke="black" d="M492.23,-121.63C492.23,-121.63 492.23,-151.94 492.23,-151.94"/>
<polygon fill="black" stroke="black" points="488.73,-151.94 492.23,-161.94 495.73,-151.94 488.73,-151.94"/>
</g>
<!-- UserService -->
<g id="node9" class="node">
<title>UserService</title>
<ellipse fill="#fdb462" stroke="black" cx="634" cy="-180" rx="58.44" ry="18"/>
<text text-anchor="middle" x="634" y="-175.8" font-family="Times,serif" font-size="14.00">UserService</text>
</g>
<!-- UserService&#45;&gt;UserModule -->
<g id="edge8" class="edge">
<title>UserService&#45;&gt;UserModule</title>
<path fill="none" stroke="black" d="M634,-161.99C634,-161.99 634,-132.15 634,-132.15"/>
<polygon fill="black" stroke="black" points="637.5,-132.15 634,-122.15 630.5,-132.15 637.5,-132.15"/>
</g>
<!-- WishService -->
<g id="node10" class="node">
<title>WishService</title>
<ellipse fill="#fdb462" stroke="black" cx="349" cy="-104" rx="60.25" ry="18"/>
<text text-anchor="middle" x="349" y="-99.8" font-family="Times,serif" font-size="14.00">WishService</text>
</g>
<!-- WishService&#45;&gt;WishModule -->
<g id="edge9" class="edge">
<title>WishService&#45;&gt;WishModule</title>
<path fill="none" stroke="black" d="M375.41,-120.49C375.41,-120.49 375.41,-151.95 375.41,-151.95"/>
<polygon fill="black" stroke="black" points="371.91,-151.95 375.41,-161.95 378.91,-151.95 371.91,-151.95"/>
</g>
</g>
</svg>
